<svg width="25" height="25" viewBox="0 0 25 25" fill="none" xmlns="http://www.w3.org/2000/svg">
<path d="M10.3608 21.1182H14.3608C14.3608 22.2182 13.4608 23.1182 12.3608 23.1182C11.2608 23.1182 10.3608 22.2182 10.3608 21.1182ZM21.3608 19.1182V20.1182H3.36084V19.1182L5.36084 17.1182V11.1182C5.36084 8.01816 7.36084 5.31816 10.3608 4.41816V4.11816C10.3608 3.01816 11.2608 2.11816 12.3608 2.11816C13.4608 2.11816 14.3608 3.01816 14.3608 4.11816V4.41816C17.3608 5.31816 19.3608 8.01816 19.3608 11.1182V17.1182L21.3608 19.1182ZM17.3608 11.1182C17.3608 8.31816 15.1608 6.11816 12.3608 6.11816C9.56084 6.11816 7.36084 8.31816 7.36084 11.1182V18.1182H17.3608V11.1182Z" fill="black"/>
</svg>
