<svg width="25" height="25" viewBox="0 0 25 25" fill="none" xmlns="http://www.w3.org/2000/svg">
<path d="M18.0889 21.5623L15.3389 18.5623L16.4989 17.4023L18.0889 18.9923L21.6789 15.4023L22.8389 16.8123L18.0889 21.5623ZM10.3389 21.4023H13.1389C13.3789 21.8123 13.6689 22.1923 13.9889 22.5323C13.6289 23.0623 13.0289 23.4023 12.3389 23.4023C11.2389 23.4023 10.3389 22.5123 10.3389 21.4023ZM3.33887 20.4023V19.4023L5.33887 17.4023V11.4023C5.33887 8.30234 7.36887 5.58234 10.3389 4.69234V4.40234C10.3389 3.30234 11.2389 2.40234 12.3389 2.40234C13.4489 2.40234 14.3389 3.30234 14.3389 4.40234V4.69234C17.3089 5.58234 19.3389 8.30234 19.3389 11.4023V12.4823L18.3389 12.4023L17.3389 12.4823V11.4023C17.3389 8.64234 15.0989 6.40234 12.3389 6.40234C9.57887 6.40234 7.33887 8.64234 7.33887 11.4023V18.4023H12.3389C12.3389 19.1023 12.4589 19.7723 12.6789 20.4023H3.33887Z" fill="black"/>
</svg>
