<svg width="64" height="64" viewBox="0 0 64 64" fill="#fff" xmlns="http://www.w3.org/2000/svg">
<circle cx="32" cy="32" r="31.7949" stroke="#333333" stroke-width="0.410256"/>
<path fill-rule="evenodd" clip-rule="evenodd" d="M15.5898 31.9999C15.5898 31.6856 15.7133 31.3842 15.9331 31.162C16.1529 30.9398 16.4511 30.8149 16.7619 30.8149H44.4068L37.0296 23.3588C36.8096 23.1362 36.6859 22.8345 36.6859 22.5198C36.6859 22.2051 36.8096 21.9033 37.0296 21.6808C37.2497 21.4583 37.5482 21.3333 37.8595 21.3333C38.1707 21.3333 38.4692 21.4583 38.6893 21.6808L48.066 31.1609C48.1752 31.271 48.2618 31.4018 48.3209 31.5457C48.3799 31.6897 48.4104 31.844 48.4104 31.9999C48.4104 32.1558 48.3799 32.3101 48.3209 32.4541C48.2618 32.5981 48.1752 32.7288 48.066 32.8389L38.6893 42.3191C38.4692 42.5416 38.1707 42.6666 37.8595 42.6666C37.5482 42.6666 37.2497 42.5416 37.0296 42.3191C36.8096 42.0965 36.6859 41.7948 36.6859 41.4801C36.6859 41.1654 36.8096 40.8636 37.0296 40.6411L44.4068 33.1849H16.7619C16.4511 33.1849 16.1529 33.0601 15.9331 32.8379C15.7133 32.6156 15.5898 32.3142 15.5898 31.9999Z" fill="#616161"/>
</svg>
